<svg id="Layer_1" data-name="Layer 1" xmlns="http://www.w3.org/2000/svg" viewBox="0 0 348.32 348.53"><defs><style>.cls-1{fill:#4834d4;}.cls-2{fill:#2319a3;}.cls-3{fill:#444447;}</style></defs><path class="cls-1" d="M-509.26,215.56Z" transform="translate(-62.02 -75.73)"/><path class="cls-2" d="M-607.63,187.38Z" transform="translate(-62.02 -75.73)"/><path class="cls-1" d="M401.69,377.54c-35.36-.34-209.32-.09-293.65.06V76.48H62V424.27H410.34V377.54Zm6.66.86-.54-.06.23-.66C408.16,377.73,408.26,378,408.35,378.4Z" transform="translate(-62.02 -75.73)"/><path class="cls-1" d="M410.34,215.56Z" transform="translate(-62.02 -75.73)"/><polygon class="cls-3" points="205.06 0 348.32 88.5 348.32 130.09 205.06 46.02 205.06 0"/><polygon class="cls-3" points="348.32 89.1 205.06 177.59 205.06 219.19 348.32 135.11 348.32 89.1"/><polygon points="314.29 110.12 300.55 102.05 348.32 89.1 314.29 110.12"/><path class="cls-2" d="M312,187.38Z" transform="translate(-62.02 -75.73)"/><path class="cls-1" d="M108,377.6" transform="translate(-62.02 -75.73)"/></svg>